<?xml version="1.0" encoding="utf-8"?>
<!-- Generator: Adobe Illustrator 18.1.1, SVG Export Plug-In . SVG Version: 6.00 Build 0)  -->
<svg version="1.1"
	 id="svg4423" inkscape:version="0.48.1 r9760" sodipodi:docname="10H.svg" xmlns:sodipodi="http://sodipodi.sourceforge.net/DTD/sodipodi-0.dtd" xmlns:cc="http://creativecommons.org/ns#" xmlns:rdf="http://www.w3.org/1999/02/22-rdf-syntax-ns#" xmlns:svg="http://www.w3.org/2000/svg" xmlns:inkscape="http://www.inkscape.org/namespaces/inkscape" xmlns:dc="http://purl.org/dc/elements/1.1/"
	 xmlns="http://www.w3.org/2000/svg" xmlns:xlink="http://www.w3.org/1999/xlink" x="0px" y="0px" viewBox="287.5 147.8 169 235.6"
	 enable-background="new 287.5 147.8 169 235.6" xml:space="preserve">
<sodipodi:namedview  inkscape:snap-global="true" inkscape:window-width="735" inkscape:snap-bbox="true" inkscape:document-units="px" inkscape:window-height="925" inkscape:window-x="705" inkscape:pageopacity="0.0" inkscape:window-y="60" inkscape:window-maximized="0" inkscape:current-layer="layer1" inkscape:pageshadow="2" inkscape:snap-page="true" id="base" pagecolor="#ffffff" showgrid="false" inkscape:cx="126.73995" inkscape:zoom="0.69999999" inkscape:cy="451.52252" borderopacity="1.0" bordercolor="#666666">
	</sodipodi:namedview>
<g id="layer1" inkscape:groupmode="layer" inkscape:label="10H">
	<g id="g8970" transform="translate(-1760.0774,-113.66123)">
		<g id="g8891">
			<g id="g8795" transform="translate(-4683.8753,2918.9368)">
				<path id="rect6365" fill="#FFFFFF" stroke="#000000" stroke-width="0.9967" d="M6739.9-2657h152c4.4,0,8,3.6,8,8v218.7
					c0,4.4-3.6,8-8,8h-152c-4.4,0-8-3.6-8-8V-2649C6732-2653.4,6735.5-2657,6739.9-2657z"/>
				<g id="g8612" transform="matrix(0.30106207,0,0,0.30106207,5267.5599,-1982.7028)">
					<path id="path7216" sodipodi:nodetypes="ccccc" inkscape:connector-curvature="0" fill="#D40000" d="M4883.2-2126.3v-78.8h7.8
						v78.8H4883.2z"/>
					<path id="rect7235" inkscape:connector-curvature="0" fill="#D40000" d="M4914-2205.1c-7.5,0-13.5,6.7-13.5,15.1v48.6
						c0,8.4,6,15.1,13.5,15.1h4.4c7.5,0,13.5-6.7,13.5-15.1v-48.6c0-8.4-6-15.1-13.5-15.1H4914z M4916.2-2197.7c4.4,0,8,3.3,8,7.5
						v49.3c0,4.1-3.5,7.5-8,7.5c-4.4,0-8-3.4-8-7.5v-49.3C4908.2-2194.4,4911.8-2197.7,4916.2-2197.7z"/>
					<g id="g7984" transform="matrix(-0.50404239,0,0,-0.50404239,7403.6384,312.07817)">
						<path id="path7986" sodipodi:nodetypes="ccccc" inkscape:connector-curvature="0" fill="#D40000" d="M3969.1,3741.1v-156.2
							h15.4v156.2H3969.1z"/>
						<path id="path7988" inkscape:connector-curvature="0" fill="#D40000" d="M4030.3,3584.9c-14.8,0-26.8,13.3-26.8,29.9v96.6
							c0,16.6,12,29.9,26.8,29.9h8.7c14.8,0,26.8-13.3,26.8-29.9v-96.6c0-16.6-12-29.9-26.8-29.9H4030.3z M4034.7,3599.6
							c8.8,0,15.8,6.6,15.8,14.9v97.8c0,8.3-7.1,14.9-15.8,14.9c-8.8,0-15.8-6.6-15.8-14.9v-97.8
							C4018.9,3606.3,4026,3599.6,4034.7,3599.6z"/>
					</g>
				</g>
			</g>
		</g>
		<path id="path8644" sodipodi:nodetypes="cccccccc" inkscape:connector-curvature="0" fill="#D40000" d="M2054.5,307.2
			c-1.2-2.6-1.4-7.1,2.3-7.7c2.7-0.4,3.8,0.9,4,2.8c0.1,0.5,0.5,0.6,0.5-0.1c0.2-2,2.1-3.1,3.6-2.9c4.1,0.7,3.9,5.3,2.6,8.4
			c-2,4.1-4.2,6.7-6.2,10.9C2058.9,314.4,2056.3,310.9,2054.5,307.2L2054.5,307.2z"/>
		<path id="path8568" sodipodi:nodetypes="ccccsccssc" inkscape:connector-curvature="0" fill="#D40000" d="M2080.4,283.3
			c5.3-0.4,8.2,4.2,8.7,7.8c0.3,0.6,0.5,0.4,0.6,0c0.2-4.7,4.4-8.4,8.3-7.9c6.2,0.1,10.1,7.1,9,12.9c-1.3,7.2-5.2,11.6-8.1,16
			c-3.3,4.7-7.8,11.3-9.3,14.5c0,0-4.5-6.9-10.5-15.1c-4-5.4-7.1-11.4-7.5-16.4C2071.5,289.4,2073.9,284.2,2080.4,283.3
			L2080.4,283.3z"/>
		<path id="path8570" sodipodi:nodetypes="ccccsccssc" inkscape:connector-curvature="0" fill="#D40000" d="M2122.7,307.9
			c5.3-0.4,8.2,4.2,8.7,7.8c0.3,0.6,0.5,0.4,0.6,0c0.2-4.7,4.4-8.4,8.3-7.9c6.2,0.1,10.1,7.1,9,12.9c-1.3,7.2-5.2,11.6-8.1,16
			c-3.3,4.7-7.8,11.3-9.3,14.5c0,0-4.5-6.9-10.5-15.1c-4-5.4-7.1-11.4-7.5-16.4C2113.8,314,2116.2,308.8,2122.7,307.9L2122.7,307.9z
			"/>
		<path id="path8572" sodipodi:nodetypes="ccccsccssc" inkscape:connector-curvature="0" fill="#D40000" d="M2164.4,283.3
			c5.3-0.4,8.2,4.2,8.7,7.8c0.3,0.6,0.5,0.4,0.6,0c0.2-4.7,4.4-8.4,8.3-7.9c6.2,0.1,10.1,7.1,9,12.9c-1.3,7.2-5.2,11.6-8.1,16
			c-3.3,4.7-7.8,11.3-9.3,14.5c0,0-4.5-6.9-10.5-15.1c-4-5.4-7.1-11.4-7.5-16.4C2155.4,289.4,2157.8,284.2,2164.4,283.3
			L2164.4,283.3z"/>
		<path id="path8574" sodipodi:nodetypes="ccccsccssc" inkscape:connector-curvature="0" fill="#D40000" d="M2164.4,332.4
			c5.3-0.4,8.2,4.2,8.7,7.8c0.3,0.6,0.5,0.4,0.6,0c0.2-4.7,4.4-8.4,8.3-7.9c6.2,0.1,10.1,7.1,9,12.9c-1.3,7.2-5.2,11.6-8.1,16
			c-3.3,4.7-7.8,11.3-9.3,14.5c0,0-4.5-6.9-10.5-15.1c-4-5.4-7.1-11.4-7.5-16.4C2155.4,338.5,2157.8,333.3,2164.4,332.4
			L2164.4,332.4z"/>
		<path id="path8576" sodipodi:nodetypes="ccccsccssc" inkscape:connector-curvature="0" fill="#D40000" d="M2080.4,332.4
			c5.3-0.4,8.2,4.2,8.7,7.8c0.3,0.6,0.5,0.4,0.6,0c0.2-4.7,4.4-8.4,8.3-7.9c6.2,0.1,10.1,7.1,9,12.9c-1.3,7.2-5.2,11.6-8.1,16
			c-3.3,4.7-7.8,11.3-9.3,14.5c0,0-4.5-6.9-10.5-15.1c-4-5.4-7.1-11.4-7.5-16.4C2071.5,338.5,2073.9,333.3,2080.4,332.4
			L2080.4,332.4z"/>
		<path id="path8596" sodipodi:nodetypes="ccccsccssc" inkscape:connector-curvature="0" fill="#D40000" d="M2164.4,426
			c5.3,0.4,8.2-4.2,8.7-7.8c0.3-0.6,0.5-0.4,0.6,0c0.2,4.7,4.4,8.4,8.3,7.9c6.2-0.1,10.1-7.1,9-12.9c-1.3-7.2-5.2-11.6-8.1-16
			c-3.3-4.7-7.8-11.3-9.3-14.5c0,0-4.5,6.9-10.5,15.1c-4,5.4-7.1,11.4-7.5,16.4C2155.4,419.9,2157.8,425.1,2164.4,426L2164.4,426z"
			/>
		<path id="path8598" sodipodi:nodetypes="ccccsccssc" inkscape:connector-curvature="0" fill="#D40000" d="M2164.4,475
			c5.3,0.4,8.2-4.2,8.7-7.8c0.3-0.6,0.5-0.4,0.6,0c0.2,4.7,4.4,8.4,8.3,7.9c6.2-0.1,10.1-7.1,9-12.9c-1.3-7.2-5.2-11.6-8.1-16
			c-3.3-4.7-7.8-11.3-9.3-14.5c0,0-4.5,6.9-10.5,15.1c-4,5.4-7.1,11.4-7.5,16.4C2155.4,468.9,2157.8,474.1,2164.4,475L2164.4,475z"
			/>
		<path id="path8600" sodipodi:nodetypes="ccccsccssc" inkscape:connector-curvature="0" fill="#D40000" d="M2122.4,450.6
			c5.3,0.4,8.2-4.2,8.7-7.8c0.3-0.6,0.5-0.4,0.6,0c0.2,4.7,4.4,8.4,8.3,7.9c6.2-0.1,10.1-7.1,9-12.9c-1.3-7.2-5.2-11.6-8.1-16
			c-3.3-4.7-7.8-11.3-9.3-14.5c0,0-4.5,6.9-10.5,15.1c-4,5.4-7.1,11.4-7.5,16.4C2113.4,444.5,2115.8,449.7,2122.4,450.6
			L2122.4,450.6z"/>
		<path id="path8602" sodipodi:nodetypes="ccccsccssc" inkscape:connector-curvature="0" fill="#D40000" d="M2080.4,426
			c5.3,0.4,8.2-4.2,8.7-7.8c0.3-0.6,0.5-0.4,0.6,0c0.2,4.7,4.4,8.4,8.3,7.9c6.2-0.1,10.1-7.1,9-12.9c-1.3-7.2-5.2-11.6-8.1-16
			c-3.3-4.7-7.8-11.3-9.3-14.5c0,0-4.5,6.9-10.5,15.1c-4,5.4-7.1,11.4-7.5,16.4C2071.5,419.9,2073.9,425.1,2080.4,426L2080.4,426z"
			/>
		<path id="path8604" sodipodi:nodetypes="ccccsccssc" inkscape:connector-curvature="0" fill="#D40000" d="M2080.4,475
			c5.3,0.4,8.2-4.2,8.7-7.8c0.3-0.6,0.5-0.4,0.6,0c0.2,4.7,4.4,8.4,8.3,7.9c6.2-0.1,10.1-7.1,9-12.9c-1.3-7.2-5.2-11.6-8.1-16
			c-3.3-4.7-7.8-11.3-9.3-14.5c0,0-4.5,6.9-10.5,15.1c-4,5.4-7.1,11.4-7.5,16.4C2071.5,468.9,2073.9,474.1,2080.4,475L2080.4,475z"
			/>
		<path id="path8660" sodipodi:nodetypes="cccccccc" inkscape:connector-curvature="0" fill="#D40000" d="M2196.6,450.9
			c-1.2,2.6-1.4,7.1,2.3,7.7c2.7,0.4,3.8-0.9,4-2.8c0.1-0.5,0.5-0.6,0.5,0.1c0.2,2,2.1,3.1,3.6,2.9c4.1-0.7,3.9-5.3,2.6-8.4
			c-2-4.1-4.2-6.7-6.2-10.9C2201,443.6,2198.4,447.1,2196.6,450.9L2196.6,450.9z"/>
	</g>
</g>
</svg>
