<?xml version="1.0"?>
<svg width="568" height="792" xmlns="http://www.w3.org/2000/svg">

 <g>
  <title>background</title>
  <rect fill="none" id="canvas_background" height="794" width="570" y="-1" x="-1"/>
 </g>
 <g>
  <title>Layer 1</title>
  <g id="layer1">
   <g id="g8900">
    <g id="g8879">
     <path d="m28.403809,1.58667l511.5,0c14.899414,0 26.799805,12.199951 26.799805,26.800049l0,735.799927c0,14.899902 -12.200195,26.799805 -26.799805,26.799805l-511.5,0c-14.900391,0 -26.799805,-12.199951 -26.799805,-26.799805l0,-735.799927c-0.300293,-14.600098 11.899414,-26.800049 26.799805,-26.800049z" stroke-width="0.9967" stroke="#000000" fill="#FFFFFF" id="rect6347"/>
    </g>
    <g id="g6564">
     <path d="m24.442871,154.249847c-4.099976,-8.899994 -4.599976,-23.799988 7.599976,-25.799988c9.099976,-1.300018 12.700073,3 13.400024,9.399994c0.300049,1.799988 1.5,2 1.800049,-0.299988c0.5,-6.600006 7.099976,-10.400024 12.199951,-9.400024c13.900024,2.300018 13.199951,17.700012 8.599976,28.400024c-6.799927,13.899994 -14.199951,22.5 -20.799927,36.699982c-7.800049,-14.700012 -16.699951,-26.600006 -22.800049,-39l0,0z" fill="#D40000" id="path8628"/>
     <g id="g6555">
      <path d="m499.74292,638.549866c-4.100098,8.900024 -4.600098,23.800049 7.600098,25.800049c9.099854,1.299988 12.699951,-3 13.399902,-9.399963c0.300049,-1.80011 1.5,-2 1.800049,0.299988c0.5,6.599976 7.099854,10.399963 12.199951,9.399963c13.899902,-2.299988 13.199951,-17.699951 8.600098,-28.399963c-6.800049,-13.900024 -14.200195,-22.5 -20.800049,-36.700073c-7.900146,14.700012 -16.699951,26.400024 -22.800049,39l0,0z" fill="#D40000" id="path8650"/>
      <g id="g6548">
       <g transform="matrix(0.30106207,0,0,0.30106207,995.9849,969.13578) " id="g8574">
        <path d="m-3234.849121,-2821.086914l1.300049,-17c4.300049,-52.399658 15.699951,-70.099854 81,-124.800049c31.599609,-26.599609 42,-39.799805 43.499756,-54.899902c4.099854,-35.699707 -28.099854,-47.100098 -49.099854,-47.100098c-27.300293,-0.299805 -58.199951,16 -43.300293,53.900391l-30.599609,8.899902c-6.100098,-35.399902 0.300049,-68.399902 28.899902,-83.300049c38.199707,-19.199951 87.399902,-11.599854 112.199707,18.499756c16.700195,20.300293 20.5,48.400391 11.400391,70.400391c-26.100098,56.199707 -114.400391,80.799805 -121.800293,145.599609l97.700195,0l0,-36.199707l28.899902,0l0,66.599854l-160.099854,-0.600098z" fill="#D40000" id="path7100"/>
        <path d="m-1497.149292,-983.186646l-1.300049,17c-4.300049,52.399963 -15.699951,70.099976 -81,124.799927c-31.599854,26.600037 -42,39.799988 -43.5,54.900024c-4.099854,35.700012 28.100098,47.099976 49.100098,47.099976c27.300049,0.299988 58.199951,-16 43.300049,-53.899963l30.599854,-8.900024c6.100098,35.400024 -0.300049,68.400024 -28.899902,83.299988c-38.199951,19.200012 -87.400146,11.600098 -112.199951,-18.5c-16.700195,-20.299988 -20.5,-48.399963 -11.400146,-70.399963c26.100098,-56.199951 114.400146,-80.799988 121.800049,-145.600037l-97.699951,0l0,36.200073l-28.900146,0l0,-66.500061l160.100098,0.500061z" fill="#D40000" id="path7116"/>
       </g>
       <path d="m253.342896,72.44986c18,-1.300018 27.599976,14.199982 29.400024,26.299988c1,2 1.799927,1.300018 2,0c0.799927,-15.700012 14.900024,-28.399994 27.900024,-26.600006c21,0.300018 33.899902,23.800018 30.399902,43.5c-4.299927,24.300018 -17.5,39 -27.299927,53.900024c-11.099976,15.699982 -26.300049,38 -31.099976,48.899994c0,0 -15.200073,-23.300018 -35.200073,-50.600006c-13.400024,-18.200012 -24.099976,-38.200012 -25.099976,-55.200012c-1.099976,-19.699982 6.700073,-37.199982 29,-40.199982l0,0z" fill="#D40000" id="path8514"/>
       <path d="m253.342896,721.349915c18,1.299988 27.599976,-14.200073 29.400024,-26.300049c1,-2 1.799927,-1.299927 2,0c0.799927,15.700073 14.900024,28.400024 27.900024,26.600037c21,-0.299988 33.899902,-23.799988 30.399902,-43.500061c-4.299927,-24.299927 -17.5,-39 -27.299927,-53.899902c-11.099976,-15.700073 -26.300049,-38 -31.099976,-48.900024c0,0 -15.200073,23.299988 -35.200073,50.599976c-13.5,18.199951 -24.199951,38.199951 -25.199951,55.199951c-1,19.700073 6.800049,37.200073 29.099976,40.200073l0,0z" fill="#D40000" id="path8580"/>
      </g>
     </g>
    </g>
   </g>
  </g>
 </g>
</svg>