<?xml version="1.0"?>
<svg width="568" height="792" xmlns="http://www.w3.org/2000/svg">
 <g>
  <title>background</title>
  <rect fill="none" id="canvas_background" height="794" width="570" y="-1" x="-1"/>
 </g>

 <g>
  <title>Layer 1</title>
  <g id="layer1">
   <g id="g8912">
    <g id="g8784">
     <g id="g8890">
      <path d="m28.375488,1.58667l511.5,0c14.899902,0 26.799805,12.199951 26.799805,26.800049l0,735.799927c0,14.899902 -12.199707,26.799805 -26.799805,26.799805l-511.5,0c-14.899902,0 -26.799804,-12.199951 -26.799804,-26.799805l0,-735.799927c-0.100097,-14.600098 11.799804,-26.800049 26.799804,-26.800049z" stroke-width="0.9967" stroke="#000000" fill="#FFFFFF" id="rect6351"/>
      <g transform="matrix(0.30106207,0,0,0.30106207,5635.595,-1948.9541) " id="g8582">
       <path d="m-18643.216797,6808.978516l21.5,-15.399902c18.701172,29.600098 39.5,49.399902 71.099609,45.800293c47.601563,-3.299805 67.400391,-52.400391 57.5,-89.400391c-9.599609,-33.199707 -49.099609,-49.399902 -80.5,-31.599609c-7.298828,4.099609 -16,9.399902 -16,9.399902l-11.099609,-18.200195l73.701172,-85.799805l-80,0l0,35.399902l-30.900391,0l0,-63.600098l156.199219,0l0,21.500488c0,0 -41.798828,42.499512 -55.699219,66.099609c34.199219,1.299805 61.5,22.499512 71.400391,56c5.798828,17.699707 3.298828,58 -4.300781,75.499512c-12.699219,29.100586 -46.800781,52.700195 -78.5,53.900391c-52.400391,3.5 -80.5,-32.699707 -94.400391,-59.600098l0,0z" fill="#D40000" id="path7102"/>
       <path d="m-16908.117188,8771.776367l-21.5,15.400391c-18.699219,-29.599609 -39.5,-49.400391 -71.099609,-45.799805c-47.599609,3.299805 -67.400391,52.399414 -57.5,89.399414c9.599609,33.200195 49.099609,49.400391 80.5,31.600586c7.300781,-4.100586 16,-8.600586 16,-8.600586l13.199219,17.200195l-75.699219,86.100586l80,0l0,-35.400391l30.599609,0l0,63.599609l-156.199219,0l0,-21.5c0,0 41.798828,-42.5 55.699219,-66.099609c-34.199219,-1.299805 -61.5,-22.5 -71.400391,-56c-5.798828,-17.700195 -3.298828,-58 4.300781,-75.5c12.699219,-29.099609 46.800781,-52.700195 78.5,-53.900391c52.599609,-3.5 80.699219,32.700195 94.599609,59.5l0,0z" fill="#D40000" id="path7118"/>
      </g>
     </g>
    </g>
    <path d="m26.050781,155.249817c-4.099976,-8.899994 -4.599976,-23.799988 7.599976,-25.799988c9.099976,-1.300018 12.700073,3 13.400024,9.399994c0.300049,1.799988 1.5,2 1.800049,-0.299988c0.5,-6.600006 7.099976,-10.400024 12.199951,-9.400024c13.900024,2.300018 13.199951,17.700012 8.599976,28.400024c-6.799927,13.899994 -14.199951,22.5 -20.799927,36.699982c-7.900024,-14.700012 -16.800049,-26.399994 -22.800049,-39l0,0z" fill="#D40000" id="path8630"/>
    <path d="m253.350708,74.449829c18,-1.300018 27.600098,14.199982 29.399902,26.299988c1,2 1.800049,1.300018 2,0c0.800049,-15.700012 14.900146,-28.399994 27.900146,-26.600006c21,0.300018 33.899902,23.800018 30.399902,43.5c-4.300049,24.300018 -17.5,39 -27.300049,53.900024c-11.099854,15.699982 -26.299805,38 -31.099854,48.899994c0,0 -15.199951,-23.300018 -35.199951,-50.600006c-13.400146,-18.200012 -24.100098,-38.200012 -25.100098,-55.200012c-1.300049,-19.699982 6.800049,-37.199982 29,-40.199982l0,0z" fill="#D40000" id="path8516"/>
    <path d="m253.350708,323.649841c18,-1.299988 27.600098,14.200012 29.399902,26.299988c1,2 1.800049,1.299988 2,0c0.800049,-15.700012 14.900146,-28.400024 27.900146,-26.599976c21,0.299988 33.899902,23.799927 30.399902,43.5c-4.300049,24.299927 -17.5,39 -27.300049,53.899963c-11.099854,15.700012 -26.299805,38 -31.099854,48.900024c0,0 -15.199951,-23.299988 -35.199951,-50.600037c-13.400146,-18.199951 -24.100098,-38.199951 -25.100098,-55.199951c-1.099854,-19.700073 7,-37.200012 29,-40.200012l0,0z" fill="#D40000" id="path8518"/>
    <path d="m499.450806,639.349854c-4.100098,8.900024 -4.600098,23.799927 7.600098,25.799927c9.099854,1.300049 12.699951,-3 13.399902,-9.399902c0.300049,-1.800049 1.5,-2 1.800049,0.299927c0.5,6.600037 7.099854,10.400024 12.199951,9.400024c13.899902,-2.300049 13.199951,-17.699951 8.600098,-28.400024c-6.800049,-13.900024 -14.200195,-22.5 -20.800049,-36.699951c-7.800049,14.699951 -16.700195,26.599976 -22.800049,39l0,0z" fill="#D40000" id="path8652"/>
    <path d="m253.350708,719.049805c18,1.300049 27.600098,-14.199951 29.399902,-26.299927c1,-2 1.800049,-1.300049 2,0c0.800049,15.699951 14.900146,28.399902 27.900146,26.599976c21,-0.300049 33.899902,-23.800049 30.399902,-43.5c-4.300049,-24.300049 -17.5,-39 -27.300049,-53.899963c-11.099854,-15.700012 -26.299805,-38 -31.099854,-48.900085c0,0 -15.199951,23.300049 -35.199951,50.600037c-13.400146,18.200012 -24.100098,38.200012 -25.100098,55.200012c-1.300049,19.699951 6.800049,37.199951 29,40.199951l0,0z" fill="#D40000" id="path8582"/>
   </g>
  </g>
 </g>
</svg>