<?xml version="1.0" encoding="utf-8"?>
<!-- Generator: Adobe Illustrator 18.1.1, SVG Export Plug-In . SVG Version: 6.00 Build 0)  -->
<svg version="1.1"
	 id="svg4423" inkscape:version="0.48.1 r9760" sodipodi:docname="4H.svg" xmlns:sodipodi="http://sodipodi.sourceforge.net/DTD/sodipodi-0.dtd" xmlns:cc="http://creativecommons.org/ns#" xmlns:rdf="http://www.w3.org/1999/02/22-rdf-syntax-ns#" xmlns:svg="http://www.w3.org/2000/svg" xmlns:inkscape="http://www.inkscape.org/namespaces/inkscape" xmlns:dc="http://purl.org/dc/elements/1.1/"
	 xmlns="http://www.w3.org/2000/svg" xmlns:xlink="http://www.w3.org/1999/xlink" x="0px" y="0px"
	 viewBox="348.9 240.1 566.1 790.4" enable-background="new 348.9 240.1 566.1 790.4" xml:space="preserve">
<sodipodi:namedview  inkscape:snap-global="true" inkscape:window-width="735" inkscape:snap-bbox="true" inkscape:document-units="px" inkscape:window-height="925" inkscape:window-x="577" inkscape:pageopacity="0.0" inkscape:window-y="44" inkscape:window-maximized="0" inkscape:current-layer="layer1" inkscape:pageshadow="2" inkscape:snap-page="true" id="base" pagecolor="#ffffff" showgrid="false" inkscape:cx="249.10806" inkscape:zoom="0.98994948" inkscape:cy="483.12663" borderopacity="1.0" bordercolor="#666666">
	</sodipodi:namedview>
<g id="layer1" inkscape:groupmode="layer" inkscape:label="4H">
	<g id="g8925" transform="translate(-1760.0774,198.14981)">
		<g id="g8796">
			<g id="g8902" transform="translate(-4683.8753,2918.9368)">
				<path id="rect6353" fill="#FFFFFF" stroke="#000000" stroke-width="0.9967" d="M6820.2-2876.5h511.5c14.9,0,26.8,12.2,26.8,26.8
					v735.8c0,14.9-12.2,26.8-26.8,26.8h-511.5c-14.9,0-26.8-12.2-26.8-26.8v-735.8C6793.4-2864.3,6805.3-2876.5,6820.2-2876.5z"/>
				<g id="g8591" transform="matrix(0.30106207,0,0,0.30106207,5623.2929,-1949.6699)">
					<path id="path7104" sodipodi:nodetypes="cccccccccccccccccccc" inkscape:connector-curvature="0" fill="#D40000" d="
						M4036.5-2688.1v-23.5h21.8v-39h-108.6v-27.6l117.7-177.5h19.2v177.5h33.2v27.6h-33.2l-0.8,39h18.2v23.5H4036.5z M4058.3-2890.9
						l-74.7,112.4h74.7V-2890.9z"/>
					<path id="path7159" sodipodi:nodetypes="cccccccccccccccccccc" inkscape:connector-curvature="0" fill="#D40000" d="
						M5613.9-845.8v23.5h-21.8v39h108.6v27.6L5583-578.2h-19.2v-177.5h-33.2v-27.6h33.2l0.8-39h-18.2v-23.5H5613.9z M5592.1-643.2
						l74.7-112.4h-74.7V-643.2z"/>
				</g>
			</g>
		</g>
		<path id="path8638" sodipodi:nodetypes="cccccccc" inkscape:connector-curvature="0" fill="#D40000" d="M2131.7,197.1
			c-4.1-8.9-4.6-23.8,7.6-25.8c9.1-1.3,12.7,3,13.4,9.4c0.3,1.8,1.5,2,1.8-0.3c0.5-6.6,7.1-10.4,12.2-9.4
			c13.9,2.3,13.2,17.7,8.6,28.4c-6.8,13.9-14.2,22.5-20.8,36.7C2146.7,221.4,2137.8,209.5,2131.7,197.1L2131.7,197.1z"/>
		<path id="path8520" sodipodi:nodetypes="ccccsccssc" inkscape:connector-curvature="0" fill="#D40000" d="M2223.4,108.5
			c18-1.3,27.6,14.2,29.4,26.3c1,2,1.8,1.3,2,0c0.8-15.7,14.9-28.4,27.9-26.6c21,0.3,33.9,23.8,30.4,43.5
			c-4.3,24.3-17.5,39-27.3,53.9c-11.1,15.7-26.3,38-31.1,48.9c0,0-15.2-23.3-35.2-50.6c-13.4-18.2-24.1-38.2-25.1-55.2
			C2193.3,129,2201.1,111.5,2223.4,108.5L2223.4,108.5z"/>
		<path id="path8522" sodipodi:nodetypes="ccccsccssc" inkscape:connector-curvature="0" fill="#D40000" d="M2500.7,108.5
			c18-1.3,27.6,14.2,29.4,26.3c1,2,1.8,1.3,2,0c0.8-15.7,14.9-28.4,27.9-26.6c21,0.3,33.9,23.8,30.4,43.5
			c-4.3,24.3-17.5,39-27.3,53.9c-11.1,15.7-26.3,38-31.1,48.9c0,0-15.2-23.3-35.2-50.6c-13.4-18.2-24.1-38.2-25.1-55.2
			C2470.5,129,2478.6,111.5,2500.7,108.5L2500.7,108.5z"/>
		<path id="path8584" sodipodi:nodetypes="ccccsccssc" inkscape:connector-curvature="0" fill="#D40000" d="M2223.4,757.7
			c18,1.3,27.6-14.2,29.4-26.3c1-2,1.8-1.3,2,0c0.8,15.7,14.9,28.4,27.9,26.6c21-0.3,33.9-23.8,30.4-43.5
			c-4.3-24.3-17.5-39-27.3-53.9c-11.1-15.7-26.3-38-31.1-48.9c0,0-15.2,23.3-35.2,50.6c-13.4,18.2-24.1,38.2-25.1,55.2
			C2193.3,737.2,2201.1,754.6,2223.4,757.7L2223.4,757.7z"/>
		<path id="path8586" sodipodi:nodetypes="ccccsccssc" inkscape:connector-curvature="0" fill="#D40000" d="M2500.7,757.7
			c18,1.3,27.6-14.2,29.4-26.3c1-2,1.8-1.3,2,0c0.8,15.7,14.9,28.4,27.9,26.6c21-0.3,33.9-23.8,30.4-43.5
			c-4.3-24.3-17.5-39-27.3-53.9c-11.1-15.7-26.3-38-31.1-48.9c0,0-15.2,23.3-35.2,50.6c-13.4,18.2-24.1,38.2-25.1,55.2
			C2470.5,737.2,2478.6,754.6,2500.7,757.7L2500.7,757.7z"/>
		<path id="path8654" sodipodi:nodetypes="cccccccc" inkscape:connector-curvature="0" fill="#D40000" d="M2605.7,678.4
			c-4.1,8.9-4.6,23.8,7.6,25.8c9.1,1.3,12.7-3,13.4-9.4c0.3-1.8,1.5-2,1.8,0.3c0.5,6.6,7.1,10.4,12.2,9.4
			c13.9-2.3,13.2-17.7,8.6-28.4c-6.8-13.9-14.2-22.5-20.8-36.7C2620.7,654.1,2611.8,665.8,2605.7,678.4L2605.7,678.4z"/>
	</g>
</g>
</svg>
