<?xml version="1.0" encoding="utf-8"?>
<!-- Generator: Adobe Illustrator 18.1.1, SVG Export Plug-In . SVG Version: 6.00 Build 0)  -->
<svg version="1.1"
	 id="svg4423" inkscape:version="0.48.1 r9760" sodipodi:docname="5H.svg" xmlns:sodipodi="http://sodipodi.sourceforge.net/DTD/sodipodi-0.dtd" xmlns:cc="http://creativecommons.org/ns#" xmlns:rdf="http://www.w3.org/1999/02/22-rdf-syntax-ns#" xmlns:svg="http://www.w3.org/2000/svg" xmlns:inkscape="http://www.inkscape.org/namespaces/inkscape" xmlns:dc="http://purl.org/dc/elements/1.1/"
	 xmlns="http://www.w3.org/2000/svg" xmlns:xlink="http://www.w3.org/1999/xlink" x="0px" y="0px"
	 viewBox="348.9 240.1 566.1 790.4" enable-background="new 348.9 240.1 566.1 790.4" xml:space="preserve">
<sodipodi:namedview  inkscape:snap-global="true" inkscape:window-width="735" inkscape:snap-bbox="true" inkscape:document-units="px" inkscape:window-height="925" inkscape:window-x="578" inkscape:pageopacity="0.0" inkscape:window-y="17" inkscape:window-maximized="0" inkscape:current-layer="layer1" inkscape:pageshadow="2" inkscape:snap-page="true" id="base" pagecolor="#ffffff" showgrid="false" inkscape:cx="199.26695" inkscape:zoom="0.98994948" inkscape:cy="514.96342" borderopacity="1.0" bordercolor="#666666">
	</sodipodi:namedview>
<g id="layer1" inkscape:groupmode="layer" inkscape:label="5H">
	<g id="g8939" transform="translate(-1983.3059,198.14981)">
		<g id="g8809">
			<g id="g8915" transform="translate(-4683.8753,2918.9368)">
				<path id="rect6355" fill="#FFFFFF" stroke="#000000" stroke-width="0.9967" d="M7043.4-2876.5h511.5c14.9,0,26.8,12.2,26.8,26.8
					v735.8c0,14.9-12.2,26.8-26.8,26.8h-511.5c-14.9,0-26.8-12.2-26.8-26.8v-735.8C7016.6-2864.3,7028.7-2876.5,7043.4-2876.5z"/>
				<g id="g8601" transform="matrix(0.30106207,0,0,0.30106207,5562.5812,-1947.8121)">
					<path id="path7106" sodipodi:nodetypes="cccssccccccccccc" inkscape:connector-curvature="0" fill="#D40000" d="M4898.5-2768.7
						l27.1-0.3c5.1,16.5,16.7,32.9,32.2,37.7c43.8,10.4,72.2-14.2,81.3-42.5c11.4-34.2-0.3-82.3-30.4-99.5
						c-25.1-14.2-62.3-2.3-79.2,28.1l-19-11.6l10.1-112.9h123.8v26.6h-100.5l-1.5,47.1c21.5-15.2,54.9-14.9,76.5-4.3
						c41,19.5,60,63.8,51.9,116.2c-11.1,51.9-35.2,81.5-90.1,85.6C4919.8-2697.8,4898.3-2739.9,4898.5-2768.7L4898.5-2768.7z"/>
					<path id="path7122" sodipodi:nodetypes="cccssccccccccccc" inkscape:connector-curvature="0" fill="#D40000" d="M6638.3-777.6
						l-27.1,0.3c-5.1-16.5-16.7-32.9-32.2-37.7c-43.8-10.4-72.2,14.2-81.3,42.5c-11.4,34.2,0.3,82.3,30.4,99.5
						c25.1,14.2,62.3,2.3,79.2-28.1l19,11.6l-10.1,112.9h-123.8v-26.6h100.5l1.5-47.1c-21.5,15.2-54.9,14.9-76.5,4.3
						c-41-19.5-60-63.8-51.9-116.2c11.1-51.9,35.2-81.5,90.1-85.6C6617-848.5,6638.5-806.5,6638.3-777.6L6638.3-777.6z"/>
				</g>
			</g>
		</g>
		<path id="path8640" sodipodi:nodetypes="cccccccc" inkscape:connector-curvature="0" fill="#D40000" d="M2356.9,196.1
			c-4.1-8.9-4.6-23.8,7.6-25.8c9.1-1.3,12.7,3,13.4,9.4c0.3,1.8,1.5,2,1.8-0.3c0.5-6.6,7.1-10.4,12.2-9.4
			c13.9,2.3,13.2,17.7,8.6,28.4c-6.8,13.9-14.2,22.5-20.8,36.7C2371.6,220.4,2363,208.5,2356.9,196.1L2356.9,196.1z"/>
		<path id="path8524" sodipodi:nodetypes="ccccsccssc" inkscape:connector-curvature="0" fill="#D40000" d="M2444.3,113.3
			c18-1.3,27.6,14.2,29.4,26.3c1,2,1.8,1.3,2,0c0.8-15.7,14.9-28.4,27.9-26.6c21,0.3,33.9,23.8,30.4,43.5
			c-4.3,24.3-17.5,39-27.3,53.9c-11.1,15.7-26.3,38-31.1,48.9c0,0-15.2-23.3-35.2-50.6c-13.4-18.2-24.1-38.2-25.1-55.2
			C2414.2,133.8,2422,116.3,2444.3,113.3L2444.3,113.3z"/>
		<path id="path8526" sodipodi:nodetypes="ccccsccssc" inkscape:connector-curvature="0" fill="#D40000" d="M2724.6,113.3
			c18-1.3,27.6,14.2,29.4,26.3c1,2,1.8,1.3,2,0c0.8-15.7,14.9-28.4,27.9-26.6c21,0.3,33.9,23.8,30.4,43.5
			c-4.3,24.3-17.5,39-27.3,53.9c-11.1,15.7-26.3,38-31.1,48.9c0,0-15.2-23.3-35.2-50.6c-13.4-18.2-24.1-38.2-25.1-55.2
			C2694.2,133.8,2702.3,116.3,2724.6,113.3L2724.6,113.3z"/>
		<path id="path8528" sodipodi:nodetypes="ccccsccssc" inkscape:connector-curvature="0" fill="#D40000" d="M2584.8,364.5
			c18-1.3,27.6,14.2,29.4,26.3c1,2,1.8,1.3,2,0c0.8-15.7,14.9-28.4,27.9-26.6c21,0.3,33.9,23.8,30.4,43.5
			c-4.3,24.3-17.5,39-27.3,53.9c-11.1,15.7-26.3,38-31.1,48.9c0,0-15.2-23.3-35.2-50.6c-13.4-18.2-24.1-38.2-25.1-55.2
			C2554.7,385,2562.5,367.5,2584.8,364.5L2584.8,364.5z"/>
		<path id="path8588" sodipodi:nodetypes="ccccsccssc" inkscape:connector-curvature="0" fill="#D40000" d="M2444.3,756.7
			c18,1.3,27.6-14.2,29.4-26.3c1-2,1.8-1.3,2,0c0.8,15.7,14.9,28.4,27.9,26.6c21-0.3,33.9-23.8,30.4-43.5
			c-4.3-24.3-17.5-39-27.3-53.9c-11.1-15.7-26.3-38-31.1-48.9c0,0-15.2,23.3-35.2,50.6c-13.4,18.2-24.1,38.2-25.1,55.2
			C2414.2,736.1,2422,753.6,2444.3,756.7L2444.3,756.7z"/>
		<path id="path8590" sodipodi:nodetypes="ccccsccssc" inkscape:connector-curvature="0" fill="#D40000" d="M2724.6,756.7
			c18,1.3,27.6-14.2,29.4-26.3c1-2,1.8-1.3,2,0c0.8,15.7,14.9,28.4,27.9,26.6c21-0.3,33.9-23.8,30.4-43.5
			c-4.3-24.3-17.5-39-27.3-53.9c-11.1-15.7-26.3-38-31.1-48.9c0,0-15.2,23.3-35.2,50.6c-13.4,18.2-24.1,38.2-25.1,55.2
			C2694.2,736.1,2702.3,753.6,2724.6,756.7L2724.6,756.7z"/>
		<path id="path8656" sodipodi:nodetypes="cccccccc" inkscape:connector-curvature="0" fill="#D40000" d="M2829.6,679.2
			c-4.1,8.9-4.6,23.8,7.6,25.8c9.1,1.3,12.7-3,13.4-9.4c0.3-1.8,1.5-2,1.8,0.3c0.5,6.6,7.1,10.4,12.2,9.4
			c13.9-2.3,13.2-17.7,8.6-28.4c-6.8-13.9-14.2-22.5-20.8-36.7C2844.3,654.9,2835.7,666.8,2829.6,679.2L2829.6,679.2z"/>
	</g>
</g>
</svg>
