<?xml version="1.0" encoding="utf-8"?>
<!-- Generator: Adobe Illustrator 18.1.1, SVG Export Plug-In . SVG Version: 6.00 Build 0)  -->
<svg version="1.1"
	 id="svg4423" inkscape:version="0.48.1 r9760" sodipodi:docname="6H.svg" xmlns:sodipodi="http://sodipodi.sourceforge.net/DTD/sodipodi-0.dtd" xmlns:cc="http://creativecommons.org/ns#" xmlns:rdf="http://www.w3.org/1999/02/22-rdf-syntax-ns#" xmlns:svg="http://www.w3.org/2000/svg" xmlns:inkscape="http://www.inkscape.org/namespaces/inkscape" xmlns:dc="http://purl.org/dc/elements/1.1/"
	 xmlns="http://www.w3.org/2000/svg" xmlns:xlink="http://www.w3.org/1999/xlink" x="0px" y="0px"
	 viewBox="349.1 240.1 566.1 790.4" enable-background="new 349.1 240.1 566.1 790.4" xml:space="preserve">
<sodipodi:namedview  inkscape:snap-global="true" inkscape:window-width="735" inkscape:snap-bbox="true" inkscape:document-units="px" inkscape:window-height="925" inkscape:window-x="1105" inkscape:pageopacity="0.0" inkscape:window-y="41" inkscape:window-maximized="0" inkscape:current-layer="layer1" inkscape:pageshadow="2" inkscape:snap-page="true" id="base" pagecolor="#ffffff" showgrid="false" inkscape:cx="40.510903" inkscape:zoom="0.49497474" inkscape:cy="601.70801" borderopacity="1.0" bordercolor="#666666">
	</sodipodi:namedview>
<g id="layer1" inkscape:groupmode="layer" inkscape:label="6h">
	<g id="g8954" transform="translate(-2206.5344,198.14981)">
		<g id="g8823">
			<g id="g8929" transform="translate(-4683.8753,2918.9368)">
				<path id="rect6357" fill="#FFFFFF" stroke="#000000" stroke-width="0.9967" d="M7266.8-2876.5h511.5c14.9,0,26.8,12.2,26.8,26.8
					v735.8c0,14.9-12.2,26.8-26.8,26.8h-511.5c-14.9,0-26.8-12.2-26.8-26.8v-735.8C7239.7-2864.3,7251.9-2876.5,7266.8-2876.5z"/>
				<g id="g8673" transform="matrix(0.30106207,0,0,0.30106207,6829.277,-2295.2794)">
					<path id="path7108" sodipodi:nodetypes="cssccacccccszsss" inkscape:connector-curvature="0" fill="#D40000" d="M1433-1627.4
						c-3.5-23-3.3-82.8-0.5-100.5c8.6-54.2,29.6-78.7,65.1-86.8c34.2-7.8,82.3,1,92.9,46.1l-28.6,0.5c-15.4-30.6-54.7-22.3-76.7-9.1
						c-17.7,10.6-25.6,54.9-22,57.5c0,0,33.2-24.3,59.5-22.5c56,5.8,79.3,53.4,77.2,98.5c-1.8,54.2-19.2,97.5-78.7,100.5
						C1464.4-1545.1,1438.3-1575.5,1433-1627.4z M1572.2-1641.8c0.3-37.7-17.2-65.8-50.1-68.9c-32.9-3-66.1,28.4-63.8,66.8
						c2.3,38.5,17.5,70.9,57.5,70.6C1558.8-1573.4,1572.2-1615,1572.2-1641.8L1572.2-1641.8z"/>
					<path id="path7161" sodipodi:nodetypes="cssccacccccszsss" inkscape:connector-curvature="0" fill="#D40000" d="M3171.7,389.4
						c3.5,23,3.3,82.8,0.5,100.5c-8.6,54.2-29.6,78.7-65.1,86.8c-34.2,7.8-82.3-1-92.9-46.1l28.6-0.5c15.4,30.6,54.7,22.3,76.7,9.1
						c17.7-10.6,25.6-54.9,22-57.5c0,0-33.2,24.3-59.5,22.5c-56-5.8-79.3-53.4-77.2-98.5c1.8-54.2,19.2-97.5,78.7-100.5
						C3140.5,307.1,3166.4,337.5,3171.7,389.4L3171.7,389.4z M3032.4,403.8c-0.3,37.7,17.2,65.8,50.1,68.9
						c32.9,3,66.1-28.4,63.8-66.8s-17.5-70.9-57.5-70.6C3045.8,335.4,3032.7,376.9,3032.4,403.8L3032.4,403.8z"/>
				</g>
			</g>
		</g>
		<path id="path8642" sodipodi:nodetypes="cccccccc" inkscape:connector-curvature="0" fill="#D40000" d="M2577.8,192.8
			c-4.1-8.9-4.6-23.8,7.6-25.8c9.1-1.3,12.7,3,13.4,9.4c0.3,1.8,1.5,2,1.8-0.3c0.5-6.6,7.1-10.4,12.2-9.4
			c13.9,2.3,13.2,17.7,8.6,28.4c-6.8,13.9-14.2,22.5-20.8,36.7C2592.7,217.1,2583.9,205.4,2577.8,192.8L2577.8,192.8z"/>
		<path id="path8530" sodipodi:nodetypes="ccccsccssc" inkscape:connector-curvature="0" fill="#D40000" d="M2667.2,114.3
			c18-1.3,27.6,14.2,29.4,26.3c1,2,1.8,1.3,2,0c0.8-15.7,14.9-28.4,27.9-26.6c21,0.3,33.9,23.8,30.4,43.5
			c-4.3,24.3-17.5,39-27.3,53.9c-11.1,15.7-26.3,38-31.1,48.9c0,0-15.2-23.3-35.2-50.6c-13.4-18.2-24.1-38.2-25.1-55.2
			C2637.1,134.8,2644.9,117.3,2667.2,114.3L2667.2,114.3z"/>
		<path id="path8532" sodipodi:nodetypes="ccccsccssc" inkscape:connector-curvature="0" fill="#D40000" d="M2949.5,114.3
			c18-1.3,27.6,14.2,29.4,26.3c1,2,1.8,1.3,2,0c0.8-15.7,14.9-28.4,27.9-26.6c21,0.3,33.9,23.8,30.4,43.5
			c-4.3,24.3-17.5,39-27.3,53.9c-11.1,15.7-26.3,38-31.1,48.9c0,0-15.2-23.3-35.2-50.6c-13.4-18.2-24.1-38.2-25.1-55.2
			C2919.4,134.8,2927.5,117.3,2949.5,114.3L2949.5,114.3z"/>
		<path id="path8534" sodipodi:nodetypes="ccccsccssc" inkscape:connector-curvature="0" fill="#D40000" d="M2949.5,364.7
			c18-1.3,27.6,14.2,29.4,26.3c1,2,1.8,1.3,2,0c0.8-15.7,14.9-28.4,27.9-26.6c21,0.3,33.9,23.8,30.4,43.5
			c-4.3,24.3-17.5,39-27.3,53.9c-11.1,15.7-26.3,38-31.1,48.9c0,0-15.2-23.3-35.2-50.6c-13.4-18.2-24.1-38.2-25.1-55.2
			C2919.4,385.2,2927.5,367.7,2949.5,364.7L2949.5,364.7z"/>
		<path id="path8536" sodipodi:nodetypes="ccccsccssc" inkscape:connector-curvature="0" fill="#D40000" d="M2667.2,364.7
			c18-1.3,27.6,14.2,29.4,26.3c1,2,1.8,1.3,2,0c0.8-15.7,14.9-28.4,27.9-26.6c21,0.3,33.9,23.8,30.4,43.5
			c-4.3,24.3-17.5,39-27.3,53.9c-11.1,15.7-26.3,38-31.1,48.9c0,0-15.2-23.3-35.2-50.6c-13.4-18.2-24.1-38.2-25.1-55.2
			C2637.1,385.2,2644.9,367.7,2667.2,364.7L2667.2,364.7z"/>
		<path id="path8592" sodipodi:nodetypes="ccccsccssc" inkscape:connector-curvature="0" fill="#D40000" d="M2667.2,759.9
			c18,1.3,27.6-14.2,29.4-26.3c1-2,1.8-1.3,2,0c0.8,15.7,14.9,28.4,27.9,26.6c21-0.3,33.9-23.8,30.4-43.5
			c-4.3-24.3-17.5-39-27.3-53.9c-11.1-15.7-26.3-38-31.1-48.9c0,0-15.2,23.3-35.2,50.6c-13.4,18.2-24.1,38.2-25.1,55.2
			C2637.1,739.4,2644.9,756.9,2667.2,759.9L2667.2,759.9z"/>
		<path id="path8594" sodipodi:nodetypes="ccccsccssc" inkscape:connector-curvature="0" fill="#D40000" d="M2949.5,759.9
			c18,1.3,27.6-14.2,29.4-26.3c1-2,1.8-1.3,2,0c0.8,15.7,14.9,28.4,27.9,26.6c21-0.3,33.9-23.8,30.4-43.5
			c-4.3-24.3-17.5-39-27.3-53.9c-11.1-15.7-26.3-38-31.1-48.9c0,0-15.2,23.3-35.2,50.6c-13.4,18.2-24.1,38.2-25.1,55.2
			C2919.4,739.4,2927.5,756.9,2949.5,759.9L2949.5,759.9z"/>
		<path id="path8658" sodipodi:nodetypes="cccccccc" inkscape:connector-curvature="0" fill="#D40000" d="M3055.8,676.1
			c-4.1,8.9-4.6,23.8,7.6,25.8c9.1,1.3,12.7-3,13.4-9.4c0.3-1.8,1.5-2,1.8,0.3c0.5,6.6,7.1,10.4,12.2,9.4
			c13.9-2.3,13.2-17.7,8.6-28.4c-6.8-13.9-14.2-22.5-20.8-36.7C3070.8,651.8,3062.2,663.7,3055.8,676.1L3055.8,676.1z"/>
	</g>
</g>
</svg>
