<?xml version="1.0" encoding="utf-8"?>
<!-- Generator: Adobe Illustrator 18.1.1, SVG Export Plug-In . SVG Version: 6.00 Build 0)  -->
<svg version="1.1"
	 id="svg4423" inkscape:version="0.48.1 r9760" sodipodi:docname="7H.svg" xmlns:sodipodi="http://sodipodi.sourceforge.net/DTD/sodipodi-0.dtd" xmlns:cc="http://creativecommons.org/ns#" xmlns:rdf="http://www.w3.org/1999/02/22-rdf-syntax-ns#" xmlns:svg="http://www.w3.org/2000/svg" xmlns:inkscape="http://www.inkscape.org/namespaces/inkscape" xmlns:dc="http://purl.org/dc/elements/1.1/"
	 xmlns="http://www.w3.org/2000/svg" xmlns:xlink="http://www.w3.org/1999/xlink" x="0px" y="0px"
	 viewBox="348.9 240.1 566.1 790.4" enable-background="new 348.9 240.1 566.1 790.4" xml:space="preserve">
<sodipodi:namedview  inkscape:snap-global="true" inkscape:window-width="735" inkscape:snap-bbox="true" inkscape:document-units="px" inkscape:window-height="925" inkscape:window-x="29" inkscape:pageopacity="0.0" inkscape:window-y="29" inkscape:window-maximized="0" inkscape:current-layer="layer1" inkscape:pageshadow="2" inkscape:snap-page="true" id="base" pagecolor="#ffffff" showgrid="false" inkscape:cx="133.5404" inkscape:zoom="0.69999999" inkscape:cy="490.34926" borderopacity="1.0" bordercolor="#666666">
	</sodipodi:namedview>
<g id="layer1" inkscape:groupmode="layer" inkscape:label="7H">
	<g id="g9031" transform="translate(-1090.3923,-113.66123)">
		<g id="g8838">
			<g id="g8853" transform="translate(-4683.8753,2918.9368)">
				<path id="rect6359" fill="#FFFFFF" stroke="#000000" stroke-width="0.99" stroke-miterlimit="3.8" d="M6150.5-2564.7H6662
					c14.9,0,26.8,12.2,26.8,26.8v735.8c0,14.9-12.2,26.8-26.8,26.8h-511.5c-14.9,0-26.8-12.2-26.8-26.8v-735.8
					C6123.7-2552.5,6135.8-2564.7,6150.5-2564.7z"/>
				<g id="g8660" transform="matrix(0.30106207,0,0,0.30106207,5449.5822,-1980.8821)">
					<path id="path7110" sodipodi:nodetypes="cccccccccc" inkscape:connector-curvature="0" fill="#D40000" d="M2342.8-1547.6
						c18-93.2,37-163.3,87.4-239.3h-102v32.7H2301v-61.8h149.4l18.5,28.9c-53.4,57.2-102.3,242.1-93.4,239.3h-32.7V-1547.6z"/>
					<path id="path7126" sodipodi:nodetypes="cccccccccc" inkscape:connector-curvature="0" fill="#D40000" d="M4012.6,292.4
						c-18,93.2-37,163.3-87.4,239.3h102V499h27.1v61.8H3905l-18.5-28.9c53.4-57.2,102.3-242.1,93.4-239.3L4012.6,292.4z"/>
				</g>
			</g>
		</g>
		<path id="path8632" sodipodi:nodetypes="cccccccc" inkscape:connector-curvature="0" fill="#D40000" d="M1462.3,511.2
			c-4.1-8.9-4.6-23.8,7.6-25.8c9.1-1.3,12.7,3,13.4,9.4c0.3,1.8,1.5,2,1.8-0.3c0.5-6.6,7.1-10.4,12.2-9.6
			c13.9,2.3,13.2,17.7,8.6,28.4c-6.8,13.9-14.2,22.5-20.8,36.7C1477,535.5,1468.4,523.8,1462.3,511.2L1462.3,511.2z"/>
		<path id="path8538" sodipodi:nodetypes="ccccsccssc" inkscape:connector-curvature="0" fill="#D40000" d="M1549.1,429.9
			c18-1.3,27.6,14.2,29.4,26.3c1,2,1.8,1.3,2,0c0.8-15.7,14.9-28.4,27.9-26.6c21,0.3,33.9,23.8,30.4,43.5
			c-4.3,24.3-17.5,39-27.3,53.9c-11.1,15.7-26.3,38-31.1,48.9c0,0-15.2-23.3-35.2-50.6c-13.4-18.2-24.1-38.2-25.1-55.2
			C1519,450.4,1526.8,432.9,1549.1,429.9L1549.1,429.9z"/>
		<path id="path8540" sodipodi:nodetypes="ccccsccssc" inkscape:connector-curvature="0" fill="#D40000" d="M1831.4,429.9
			c18-1.3,27.6,14.2,29.4,26.3c1,2,1.8,1.3,2,0c0.8-15.7,14.9-28.4,27.9-26.6c21,0.3,33.9,23.8,30.4,43.5
			c-4.3,24.3-17.5,39-27.3,53.9c-11.1,15.7-26.3,38-31.1,48.9c0,0-15.2-23.3-35.2-50.6c-13.4-18.2-24.1-38.2-25.1-55.2
			C1801.3,450.4,1809.4,432.9,1831.4,429.9L1831.4,429.9z"/>
		<path id="path8542" sodipodi:nodetypes="ccccsccssc" inkscape:connector-curvature="0" fill="#D40000" d="M1691.9,556.7
			c18-1.3,27.6,14.2,29.4,26.3c1,2,1.8,1.3,2,0c0.8-15.7,14.9-28.4,27.9-26.6c21,0.3,33.9,23.8,30.4,43.5
			c-4.3,24.3-17.5,39-27.3,53.9c-11.1,15.7-26.3,38-31.1,48.9c0,0-15.2-23.3-35.2-50.6c-13.4-18.2-24.1-38.2-25.1-55.2
			C1661.8,577.2,1669.9,559.8,1691.9,556.7L1691.9,556.7z"/>
		<path id="path8544" sodipodi:nodetypes="ccccsccssc" inkscape:connector-curvature="0" fill="#D40000" d="M1549.1,683.6
			c18-1.3,27.6,14.2,29.4,26.3c1,2,1.8,1.3,2,0c0.8-15.7,14.9-28.4,27.9-26.6c21,0.3,33.9,23.8,30.4,43.5
			c-4.3,24.3-17.5,39-27.3,53.9c-11.1,15.7-26.3,38-31.1,48.9c0,0-15.2-23.3-35.2-50.6c-13.4-18.2-24.1-38.2-25.1-55.2
			C1519,704.1,1526.8,686.6,1549.1,683.6L1549.1,683.6z"/>
		<path id="path8546" sodipodi:nodetypes="ccccsccssc" inkscape:connector-curvature="0" fill="#D40000" d="M1831.4,683.6
			c18-1.3,27.6,14.2,29.4,26.3c1,2,1.8,1.3,2,0c0.8-15.7,14.9-28.4,27.9-26.6c21,0.3,33.9,23.8,30.4,43.5
			c-4.3,24.3-17.5,39-27.3,53.9c-11.1,15.7-26.3,38-31.1,48.9c0,0-15.2-23.3-35.2-50.6c-13.4-18.2-24.1-38.2-25.1-55.2
			C1801.3,704.1,1809.4,686.6,1831.4,683.6L1831.4,683.6z"/>
		<path id="path8666" sodipodi:nodetypes="cccccccc" inkscape:connector-curvature="0" fill="#D40000" d="M1940.3,994.5
			c-4.1,8.9-4.6,23.8,7.6,25.8c9.1,1.3,12.7-3,13.4-9.4c0.3-1.8,1.5-2,1.8,0.3c0.5,6.6,7.1,10.4,12.2,9.6
			c13.9-2.3,13.2-17.7,8.6-28.4c-6.8-13.9-14.2-22.5-20.8-36.7C1955.3,970.2,1946.4,982.1,1940.3,994.5L1940.3,994.5z"/>
		<path id="path8620" sodipodi:nodetypes="ccccsccssc" inkscape:connector-curvature="0" fill="#D40000" d="M1831.4,1078.8
			c18,1.3,27.6-14.2,29.4-26.3c1-2,1.8-1.3,2,0c0.8,15.7,14.9,28.4,27.9,26.6c21-0.3,33.9-23.8,30.4-43.5
			c-4.3-24.3-17.5-39-27.3-53.9c-11.1-15.7-26.3-38-31.1-48.9c0,0-15.2,23.3-35.2,50.6c-13.4,18.2-24.1,38.2-25.1,55.2
			C1801.3,1058.3,1809.4,1075.8,1831.4,1078.8L1831.4,1078.8z"/>
		<path id="path8622" sodipodi:nodetypes="ccccsccssc" inkscape:connector-curvature="0" fill="#D40000" d="M1549.1,1078.8
			c18,1.3,27.6-14.2,29.4-26.3c1-2,1.8-1.3,2,0c0.8,15.7,14.9,28.4,27.9,26.6c21-0.3,33.9-23.8,30.4-43.5
			c-4.3-24.3-17.5-39-27.3-53.9c-11.1-15.7-26.3-38-31.1-48.9c0,0-15.2,23.3-35.2,50.6c-13.4,18.2-24.1,38.2-25.1,55.2
			C1519,1058.3,1526.8,1075.8,1549.1,1078.8L1549.1,1078.8z"/>
	</g>
</g>
</svg>
