<?xml version="1.0" encoding="utf-8"?>
<!-- Generator: Adobe Illustrator 18.1.1, SVG Export Plug-In . SVG Version: 6.00 Build 0)  -->
<svg version="1.1"
	 id="svg4423" inkscape:version="0.48.1 r9760" sodipodi:docname="8H.svg" xmlns:sodipodi="http://sodipodi.sourceforge.net/DTD/sodipodi-0.dtd" xmlns:cc="http://creativecommons.org/ns#" xmlns:rdf="http://www.w3.org/1999/02/22-rdf-syntax-ns#" xmlns:svg="http://www.w3.org/2000/svg" xmlns:inkscape="http://www.inkscape.org/namespaces/inkscape" xmlns:dc="http://purl.org/dc/elements/1.1/"
	 xmlns="http://www.w3.org/2000/svg" xmlns:xlink="http://www.w3.org/1999/xlink" x="0px" y="0px"
	 viewBox="349.1 240.1 566.1 790.4" enable-background="new 349.1 240.1 566.1 790.4" xml:space="preserve">
<sodipodi:namedview  inkscape:snap-global="true" inkscape:window-width="735" inkscape:snap-bbox="true" inkscape:document-units="px" inkscape:window-height="925" inkscape:window-x="803" inkscape:pageopacity="0.0" inkscape:window-y="66" inkscape:window-maximized="0" inkscape:current-layer="layer1" inkscape:pageshadow="2" inkscape:snap-page="true" id="base" pagecolor="#ffffff" showgrid="false" inkscape:cx="187.31121" inkscape:zoom="0.98994948" inkscape:cy="375.39925" borderopacity="1.0" bordercolor="#666666">
	</sodipodi:namedview>
<g id="layer1" inkscape:groupmode="layer" inkscape:label="8H">
	<g id="g9013" transform="translate(-1313.6208,-113.66123)">
		<g id="g8854">
			<g id="g8836" transform="translate(-4683.8753,2918.9368)">
				<path id="rect6361" fill="#FFFFFF" stroke="#000000" stroke-width="0.9967" d="M6373.9-2564.7h511.5c14.9,0,26.8,12.2,26.8,26.8
					v735.8c0,14.9-12.2,26.8-26.8,26.8h-511.5c-14.9,0-26.8-12.2-26.8-26.8v-735.8C6346.8-2552.5,6359-2564.7,6373.9-2564.7z"/>
				<g id="g8646" transform="matrix(0.30106207,0,0,0.30106207,5370.0941,-1979.9322)">
					<path id="path7112" sodipodi:nodetypes="zcszsczzzssssssssss" inkscape:connector-curvature="0" fill="#D40000" d="
						M3302.2-1626.1c1.3-36.7,14.9-50.6,41.5-69.9c-21.3-15.2-30.1-37.2-28.4-56.2c4.3-45.8,40.5-68.6,79.8-67.6
						c39.3,1,73.2,31.6,76,64.8c2.3,28.9-6.6,42.8-27.3,58.2c24.8,20.5,40.8,34.2,40,70.4c-0.5,36.2-31.9,79.5-86.8,80.8
						C3342.2-1544.5,3300.7-1589.4,3302.2-1626.1L3302.2-1626.1z M3454.9-1626.1c2.3-33.4-27.6-55.7-61.5-56.2
						c-32.9-0.3-62.5,27.3-62.5,57.2c0,32.2,38.5,49.6,63,49.6C3424.3-1575.2,3452.9-1597.2,3454.9-1626.1L3454.9-1626.1z
						 M3444.3-1745.3c0.8-28.1-25.8-48.1-52.9-47.3c-24.3,0.8-49.9,18.7-49.9,42.3c0,29.4,29.1,44.1,53.9,44.6
						C3417.9-1705.3,3443.8-1724.1,3444.3-1745.3z"/>
					<path id="path7128" sodipodi:nodetypes="zcszsczzzssssssssss" inkscape:connector-curvature="0" fill="#D40000" d="
						M5064.5,364.6c-1.3,36.7-14.9,50.6-41.5,69.9c21.3,15.2,30.1,37.2,28.4,56.2c-4.3,45.8-40.5,68.6-79.8,67.6
						c-39.2-1-73.2-31.6-76-64.8c-2.3-28.9,6.6-42.8,27.3-58.2c-24.8-20.5-40.8-34.2-40-70.4c0.5-36.2,31.9-79.5,86.8-80.8
						C5024.5,283,5065.7,327.8,5064.5,364.6L5064.5,364.6z M4911.5,364.6c-2.3,33.4,27.6,55.7,61.5,56.2
						c32.9,0.3,62.5-27.3,62.5-57.2c0-32.2-38.5-49.6-63-49.6C4942.2,313.7,4913.6,335.7,4911.5,364.6L4911.5,364.6z M4922.4,483.8
						c-0.8,28.1,25.8,48.1,52.9,47.3c24.3-0.8,49.9-18.7,49.9-42.3c0-29.4-29.1-44.1-53.9-44.6
						C4948.5,443.8,4922.9,462.5,4922.4,483.8z"/>
				</g>
			</g>
		</g>
		<path id="path8634" sodipodi:nodetypes="cccccccc" inkscape:connector-curvature="0" fill="#D40000" d="M1687.2,513.7
			c-4.1-8.9-4.6-23.8,7.6-25.8c9.1-1.3,12.7,3,13.4,9.4c0.3,1.8,1.5,2,1.8-0.3c0.5-6.6,7.1-10.4,12.2-9.6
			c13.9,2.3,13.2,17.7,8.6,28.4c-6.8,13.9-14.2,22.5-20.8,36.7C1702.1,538,1693.5,526.1,1687.2,513.7L1687.2,513.7z"/>
		<path id="path8548" sodipodi:nodetypes="ccccsccssc" inkscape:connector-curvature="0" fill="#D40000" d="M1775.8,424.3
			c18-1.3,27.6,14.2,29.4,26.3c1,2,1.8,1.3,2,0c0.8-15.7,14.9-28.4,27.9-26.6c21,0.3,33.9,23.8,30.4,43.5
			c-4.3,24.3-17.5,39-27.3,53.9c-11.1,15.7-26.3,38-31.1,48.9c0,0-15.2-23.3-35.2-50.6c-13.4-18.2-24.1-38.2-25.1-55.2
			C1745.7,444.8,1753.5,427.3,1775.8,424.3L1775.8,424.3z"/>
		<path id="path8550" sodipodi:nodetypes="ccccsccssc" inkscape:connector-curvature="0" fill="#D40000" d="M2053.1,424.3
			c18-1.3,27.6,14.2,29.4,26.3c1,2,1.8,1.3,2,0c0.8-15.7,14.9-28.4,27.9-26.6c21,0.3,33.9,23.8,30.4,43.5
			c-4.3,24.3-17.5,39-27.3,53.9c-11.1,15.7-26.3,38-31.1,48.9c0,0-15.2-23.3-35.2-50.6c-13.4-18.2-24.1-38.2-25.1-55.2
			C2022.9,444.8,2031,427.3,2053.1,424.3L2053.1,424.3z"/>
		<path id="path8552" sodipodi:nodetypes="ccccsccssc" inkscape:connector-curvature="0" fill="#D40000" d="M1913.1,551.2
			c18-1.3,27.6,14.2,29.4,26.3c1,2,1.8,1.3,2,0c0.8-15.7,14.9-28.4,27.9-26.6c21,0.3,33.9,23.8,30.4,43.5
			c-4.3,24.3-17.5,39-27.3,53.9c-11.1,15.7-26.3,38-31.1,48.9c0,0-15.2-23.3-35.2-50.6c-13.4-18.2-24.1-38.2-25.1-55.2
			C1882.9,571.7,1890.8,554.2,1913.1,551.2L1913.1,551.2z"/>
		<path id="path8554" sodipodi:nodetypes="ccccsccssc" inkscape:connector-curvature="0" fill="#D40000" d="M1775.8,678.3
			c18-1.3,27.6,14.2,29.4,26.3c1,2,1.8,1.3,2,0c0.8-15.7,14.9-28.4,27.9-26.6c21,0.3,33.9,23.8,30.4,43.5
			c-4.3,24.3-17.5,39-27.3,53.9c-11.1,15.7-26.3,38-31.1,48.9c0,0-15.2-23.3-35.2-50.6c-13.4-18.2-24.1-38.2-25.1-55.2
			C1745.7,698.8,1753.5,681.3,1775.8,678.3L1775.8,678.3z"/>
		<path id="path8556" sodipodi:nodetypes="ccccsccssc" inkscape:connector-curvature="0" fill="#D40000" d="M2053.1,678.3
			c18-1.3,27.6,14.2,29.4,26.3c1,2,1.8,1.3,2,0c0.8-15.7,14.9-28.4,27.9-26.6c21,0.3,33.9,23.8,30.4,43.5
			c-4.3,24.3-17.5,39-27.3,53.9c-11.1,15.7-26.3,38-31.1,48.9c0,0-15.2-23.3-35.2-50.6c-13.4-18.2-24.1-38.2-25.1-55.2
			C2022.9,698.8,2031,681.3,2053.1,678.3L2053.1,678.3z"/>
		<path id="path8614" sodipodi:nodetypes="ccccsccssc" inkscape:connector-curvature="0" fill="#D40000" d="M2053.1,1073.5
			c18,1.3,27.6-14.2,29.4-26.3c1-2,1.8-1.3,2,0c0.8,15.7,14.9,28.4,27.9,26.6c21-0.3,33.9-23.8,30.4-43.5
			c-4.3-24.3-17.5-39-27.3-53.9c-11.1-15.7-26.3-38-31.1-48.9c0,0-15.2,23.3-35.2,50.6c-13.4,18.2-24.1,38.2-25.1,55.2
			C2022.9,1052.7,2031,1070.5,2053.1,1073.5L2053.1,1073.5z"/>
		<path id="path8616" sodipodi:nodetypes="ccccsccssc" inkscape:connector-curvature="0" fill="#D40000" d="M1913.1,948.7
			c18,1.3,27.6-14.2,29.4-26.3c1-2,1.8-1.3,2,0c0.8,15.7,14.9,28.4,27.9,26.6c21-0.3,33.9-23.8,30.4-43.5
			c-4.3-24.3-17.5-39-27.3-53.9c-11.1-15.7-26.3-38-31.1-48.9c0,0-15.2,23.3-35.2,50.6c-13.4,18.2-24.1,38.2-25.1,55.2
			C1882.9,927.9,1890.8,945.6,1913.1,948.7L1913.1,948.7z"/>
		<path id="path8618" sodipodi:nodetypes="ccccsccssc" inkscape:connector-curvature="0" fill="#D40000" d="M1775.8,1073.5
			c18,1.3,27.6-14.2,29.4-26.3c1-2,1.8-1.3,2,0c0.8,15.7,14.9,28.4,27.9,26.6c21-0.3,33.9-23.8,30.4-43.5
			c-4.3-24.3-17.5-39-27.3-53.9c-11.1-15.7-26.3-38-31.1-48.9c0,0-15.2,23.3-35.2,50.6c-13.4,18.2-24.1,38.2-25.1,55.2
			C1745.7,1052.7,1753.5,1070.5,1775.8,1073.5L1775.8,1073.5z"/>
		<path id="path8664" sodipodi:nodetypes="cccccccc" inkscape:connector-curvature="0" fill="#D40000" d="M2165.5,996.8
			c-4.1,8.9-4.6,23.8,7.6,25.8c9.1,1.3,12.7-3,13.4-9.4c0.3-1.8,1.5-2,1.8,0.3c0.5,6.6,7.1,10.4,12.2,9.6
			c13.9-2.3,13.2-17.7,8.6-28.4c-6.8-13.9-14.2-22.5-20.8-36.7C2180.2,972.7,2171.6,984.4,2165.5,996.8L2165.5,996.8z"/>
	</g>
</g>
</svg>
