<?xml version="1.0" encoding="utf-8"?>
<!-- Generator: Adobe Illustrator 18.1.1, SVG Export Plug-In . SVG Version: 6.00 Build 0)  -->
<svg version="1.1"
	 id="svg4423" xmlns:inkscape="http://www.inkscape.org/namespaces/inkscape" xmlns:svg="http://www.w3.org/2000/svg" xmlns:rdf="http://www.w3.org/1999/02/22-rdf-syntax-ns#" xmlns:cc="http://creativecommons.org/ns#" xmlns:dc="http://purl.org/dc/elements/1.1/" xmlns:sodipodi="http://sodipodi.sourceforge.net/DTD/sodipodi-0.dtd" sodipodi:docname="9H.svg" inkscape:version="0.48.1 r9760"
	 xmlns="http://www.w3.org/2000/svg" xmlns:xlink="http://www.w3.org/1999/xlink" x="0px" y="0px"
	 viewBox="325.9 239.4 224.2 312.8" enable-background="new 325.9 239.4 224.2 312.8" xml:space="preserve">
<sodipodi:namedview  id="base" pagecolor="#ffffff" showgrid="false" inkscape:cy="512.40065" borderopacity="1.0" bordercolor="#666666" inkscape:zoom="0.98994948" inkscape:cx="195.21402" inkscape:window-maximized="0" inkscape:window-y="63" inkscape:window-x="976" inkscape:window-height="925" inkscape:current-layer="layer1" inkscape:pageshadow="2" inkscape:pageopacity="0.0" inkscape:snap-page="true" inkscape:document-units="px" inkscape:snap-bbox="true" inkscape:window-width="735" inkscape:snap-global="true">
	</sodipodi:namedview>
<g id="layer1" inkscape:label="9H" inkscape:groupmode="layer">
	<g id="g8993" transform="translate(-1536.8493,-113.66123)">
		<g id="g8871">
			<g id="g8817" transform="translate(-4683.8753,2918.9368)">
				<path id="rect6363" fill="#FFFFFF" stroke="#000000" stroke-width="0.9967" d="M6557.8-2565.4h202c5.9,0,10.6,4.8,10.6,10.6
					v290.6c0,5.9-4.8,10.6-10.6,10.6h-202c-5.9,0-10.6-4.8-10.6-10.6v-290.6C6547.2-2560.6,6551.9-2565.4,6557.8-2565.4z"/>
				<g id="g8631" transform="matrix(0.30106207,0,0,0.30106207,5727.1309,-1950.5247)">
					<g id="g8685" transform="translate(-1267.7708,-112.90889)">
						<path id="path7114" inkscape:connector-curvature="0" sodipodi:nodetypes="ccsccccscccsssssss" fill="#D40000" d="
							M4019-1798.6l10.1-3.1c3.8,9.9,11.5,12.9,19.6,12.3c14.6-1.1,19.4-17.1,20.5-31.2c-5.7,5.9-14.2,8.9-21.5,8.6
							c-23.2-1.2-29.1-19.4-29.3-38.5c-0.6-16.1,6.1-27.8,17.8-33.1c6.2-2.7,20.2-2.7,26.4,0.5c14.2,7.4,19.5,20.1,18.5,50.5
							c0,25-5.4,54.1-32.7,54.7C4032.6-1775.9,4020.7-1788,4019-1798.6L4019-1798.6z M4058.5-1826c4.7-2.9,7.4-5.7,9.5-9.8
							c1.7-3.4,2.3-5.2,1.8-12.2c-1.3-18.1-11-28.4-25-26.4c-7.8,1.1-12.1,5.4-14.6,13.4c-4.5,14.8,1.2,32.1,12,36.1
							C4047.2-1823.1,4054.7-1823.6,4058.5-1826z"/>
						<path id="path7130" inkscape:connector-curvature="0" sodipodi:nodetypes="ccsccccscccsssssss" fill="#D40000" d="
							M4703.4-1024.3l-10.1,3.1c-3.8-9.9-11.5-12.9-19.6-12.3c-14.6,1.1-19.4,17.1-20.5,31.2c5.7-5.9,14.2-8.9,21.5-8.6
							c23.2,1.2,29.1,19.4,29.3,38.5c0.6,16.1-6.1,27.8-17.8,33.1c-6.2,2.7-20.2,2.7-26.4-0.5c-14.2-7.4-19.5-20.1-18.5-50.5
							c0-25,5.4-54.1,32.7-54.7C4689.8-1047,4701.8-1035,4703.4-1024.3L4703.4-1024.3z M4663.9-996.9c-4.7,2.9-7.4,5.7-9.5,9.8
							c-1.7,3.4-2.3,5.2-1.8,12.2c1.3,18.1,11,28.4,25,26.4c7.8-1.1,12.1-5.4,14.6-13.4c4.5-14.8-1.2-32.1-12-36.1
							C4675.3-999.9,4667.8-999.3,4663.9-996.9L4663.9-996.9z"/>
					</g>
				</g>
			</g>
		</g>
		<path id="path8636" inkscape:connector-curvature="0" sodipodi:nodetypes="cccccccc" fill="#D40000" d="M1871.9,411.9
			c-1.6-3.5-1.8-9.4,3-10.2c3.6-0.5,5,1.2,5.3,3.7c0.1,0.7,0.6,0.8,0.7-0.1c0.2-2.6,2.8-4.1,4.8-3.8c5.5,0.9,5.2,7,3.4,11.2
			c-2.7,5.5-5.6,8.9-8.2,14.5C1877.8,421.5,1874.3,416.8,1871.9,411.9L1871.9,411.9z"/>
		<path id="path8558" inkscape:connector-curvature="0" sodipodi:nodetypes="ccccsccssc" fill="#D40000" d="M1908.1,382.3
			c7.1-0.5,10.9,5.6,11.6,10.4c0.4,0.8,0.7,0.5,0.8,0c0.3-6.2,5.9-11.2,11-10.5c8.3,0.1,13.4,9.4,12,17.2
			c-1.7,9.6-6.9,15.4-10.8,21.3c-4.4,6.2-10.4,15-12.3,19.3c0,0-6-9.2-13.9-20c-5.3-7.2-9.5-15.1-9.9-21.8
			C1896.2,390.4,1899.4,383.4,1908.1,382.3L1908.1,382.3z"/>
		<path id="path8560" inkscape:connector-curvature="0" sodipodi:nodetypes="ccccsccssc" fill="#D40000" d="M2017.7,382.3
			c7.1-0.5,10.9,5.6,11.6,10.4c0.4,0.8,0.7,0.5,0.8,0c0.3-6.2,5.9-11.2,11-10.5c8.3,0.1,13.4,9.4,12,17.2
			c-1.7,9.6-6.9,15.4-10.8,21.3c-4.4,6.2-10.4,15-12.3,19.3c0,0-6-9.2-13.9-20c-5.3-7.2-9.5-15.1-9.9-21.8
			C2005.7,390.4,2008.9,383.4,2017.7,382.3L2017.7,382.3z"/>
		<path id="path8562" inkscape:connector-curvature="0" sodipodi:nodetypes="ccccsccssc" fill="#D40000" d="M2017.7,447.6
			c7.1-0.5,10.9,5.6,11.6,10.4c0.4,0.8,0.7,0.5,0.8,0c0.3-6.2,5.9-11.2,11-10.5c8.3,0.1,13.4,9.4,12,17.2
			c-1.7,9.6-6.9,15.4-10.8,21.3c-4.4,6.2-10.4,15-12.3,19.3c0,0-6-9.2-13.9-20c-5.3-7.2-9.5-15.1-9.9-21.8
			C2005.7,455.7,2008.9,448.8,2017.7,447.6L2017.7,447.6z"/>
		<path id="path8564" inkscape:connector-curvature="0" sodipodi:nodetypes="ccccsccssc" fill="#D40000" d="M1962.8,480.7
			c7.1-0.5,10.9,5.6,11.6,10.4c0.4,0.8,0.7,0.5,0.8,0c0.3-6.2,5.9-11.2,11-10.5c8.3,0.1,13.4,9.4,12,17.2
			c-1.7,9.6-6.9,15.4-10.8,21.3c-4.4,6.2-10.4,15-12.3,19.3c0,0-6-9.2-13.9-20c-5.3-7.2-9.5-15.1-9.9-21.8
			C1950.9,488.8,1954.1,481.9,1962.8,480.7L1962.8,480.7z"/>
		<path id="path8566" inkscape:connector-curvature="0" sodipodi:nodetypes="ccccsccssc" fill="#D40000" d="M1908.1,447.6
			c7.1-0.5,10.9,5.6,11.6,10.4c0.4,0.8,0.7,0.5,0.8,0c0.3-6.2,5.9-11.2,11-10.5c8.3,0.1,13.4,9.4,12,17.2
			c-1.7,9.6-6.9,15.4-10.8,21.3c-4.4,6.2-10.4,15-12.3,19.3c0,0-6-9.2-13.9-20c-5.3-7.2-9.5-15.1-9.9-21.8
			C1896.2,455.7,1899.4,448.8,1908.1,447.6L1908.1,447.6z"/>
		<path id="path8606" inkscape:connector-curvature="0" sodipodi:nodetypes="ccccsccssc" fill="#D40000" d="M2017.7,572
			c7.1,0.5,10.9-5.6,11.6-10.4c0.4-0.8,0.7-0.5,0.8,0c0.3,6.2,5.9,11.2,11,10.5c8.3-0.1,13.4-9.4,12-17.2
			c-1.7-9.6-6.9-15.4-10.8-21.3c-4.4-6.2-10.4-15-12.3-19.3c0,0-6,9.2-13.9,20c-5.3,7.2-9.5,15.1-9.9,21.8
			C2005.7,563.9,2008.9,570.8,2017.7,572L2017.7,572z"/>
		<path id="path8608" inkscape:connector-curvature="0" sodipodi:nodetypes="ccccsccssc" fill="#D40000" d="M2017.7,637.1
			c7.1,0.5,10.9-5.6,11.6-10.4c0.4-0.8,0.7-0.5,0.8,0c0.3,6.2,5.9,11.2,11,10.5c8.3-0.1,13.4-9.4,12-17.2
			c-1.7-9.6-6.9-15.4-10.8-21.3c-4.4-6.2-10.4-15-12.3-19.3c0,0-6,9.2-13.9,20c-5.3,7.2-9.5,15.1-9.9,21.8
			C2005.7,629,2008.9,635.9,2017.7,637.1L2017.7,637.1z"/>
		<path id="path8610" inkscape:connector-curvature="0" sodipodi:nodetypes="ccccsccssc" fill="#D40000" d="M1908.1,637.1
			c7.1,0.5,10.9-5.6,11.6-10.4c0.4-0.8,0.7-0.5,0.8,0c0.3,6.2,5.9,11.2,11,10.5c8.3-0.1,13.4-9.4,12-17.2
			c-1.7-9.6-6.9-15.4-10.8-21.3c-4.4-6.2-10.4-15-12.3-19.3c0,0-6,9.2-13.9,20c-5.3,7.2-9.5,15.1-9.9,21.8
			C1896.2,629,1899.4,635.9,1908.1,637.1L1908.1,637.1z"/>
		<path id="path8612" inkscape:connector-curvature="0" sodipodi:nodetypes="ccccsccssc" fill="#D40000" d="M1908.1,572
			c7.1,0.5,10.9-5.6,11.6-10.4c0.4-0.8,0.7-0.5,0.8,0c0.3,6.2,5.9,11.2,11,10.5c8.3-0.1,13.4-9.4,12-17.2
			c-1.7-9.6-6.9-15.4-10.8-21.3c-4.4-6.2-10.4-15-12.3-19.3c0,0-6,9.2-13.9,20c-5.3,7.2-9.5,15.1-9.9,21.8
			C1896.2,563.9,1899.4,570.8,1908.1,572L1908.1,572z"/>
		<path id="path8662" inkscape:connector-curvature="0" sodipodi:nodetypes="cccccccc" fill="#D40000" d="M2060.7,602.8
			c-1.6,3.5-1.8,9.4,3,10.2c3.6,0.5,5-1.2,5.3-3.7c0.1-0.7,0.6-0.8,0.7,0.1c0.2,2.6,2.8,4.1,4.8,3.8c5.5-0.9,5.2-7,3.4-11.2
			c-2.7-5.5-5.6-8.9-8.2-14.5C2066.6,593.2,2063.1,597.8,2060.7,602.8L2060.7,602.8z"/>
	</g>
</g>
</svg>
