<?xml version="1.0" encoding="utf-8"?>
<!-- Generator: Adobe Illustrator 18.1.1, SVG Export Plug-In . SVG Version: 6.00 Build 0)  -->
<svg version="1.1"
	 id="svg4423" inkscape:version="0.48.1 r9760" sodipodi:docname="AH.svg" xmlns:sodipodi="http://sodipodi.sourceforge.net/DTD/sodipodi-0.dtd" xmlns:cc="http://creativecommons.org/ns#" xmlns:rdf="http://www.w3.org/1999/02/22-rdf-syntax-ns#" xmlns:svg="http://www.w3.org/2000/svg" xmlns:inkscape="http://www.inkscape.org/namespaces/inkscape" xmlns:dc="http://purl.org/dc/elements/1.1/"
	 xmlns="http://www.w3.org/2000/svg" xmlns:xlink="http://www.w3.org/1999/xlink" x="0px" y="0px" viewBox="287.5 147.8 169 235.6"
	 enable-background="new 287.5 147.8 169 235.6" xml:space="preserve">
<sodipodi:namedview  inkscape:snap-global="true" inkscape:window-width="735" inkscape:snap-bbox="true" inkscape:document-units="px" inkscape:window-height="925" inkscape:window-x="784" inkscape:pageopacity="0.0" inkscape:window-y="63" inkscape:window-maximized="0" inkscape:current-layer="layer1" inkscape:pageshadow="2" inkscape:snap-page="true" id="base" pagecolor="#ffffff" showgrid="false" inkscape:cx="238.22195" inkscape:zoom="0.98994948" inkscape:cy="442.43337" borderopacity="1.0" bordercolor="#666666">
	</sodipodi:namedview>
<g id="layer1" inkscape:groupmode="layer" inkscape:label="Layer 1">
	<g id="g8889" transform="translate(-1090.3923,198.14981)">
		<g id="g8763">
			<g id="g8869" transform="translate(-4683.8753,2918.9368)">
				<path id="rect3232" fill="#FFFFFF" stroke="#000000" stroke-width="0.9967" d="M6070.2-2968.8h152c4.4,0,8,3.6,8,8v218.7
					c0,4.4-3.6,8-8,8h-152c-4.4,0-8-3.6-8-8v-218.7C6062.3-2965.2,6065.9-2968.8,6070.2-2968.8z"/>
				<g id="g8567" transform="matrix(0.30106207,0,0,0.30106207,5730.6419,-1948.1116)">
					<path id="path7183" sodipodi:nodetypes="ccccccccccccccccccccc" inkscape:connector-curvature="0" fill="#D40000" d="
						M1119.6-3275.1v-6.8h6.6l14.1-73.1h8.1l15.6,73.1h5.3v6.8h-18.3v-6.8h5l-2-11.2h-18.4l-1.4,11.2h5v6.8H1119.6z M1152.6-3301.2
						l-8.1-39.2l-7.5,39.2H1152.6z"/>
					<path id="path7186" sodipodi:nodetypes="ccccccccccccccccccccc" inkscape:connector-curvature="0" fill="#D40000" d="
						M1641.4-2726v6.8h-6.6l-14.1,73.1h-8.1l-15.6-73.1h-5.3v-6.8h18.3v6.8h-5l2,11.2h18.4l1.4-11.2h-5v-6.8H1641.4z M1608.5-2700
						l8.1,39.2l7.5-39.2H1608.5z"/>
				</g>
			</g>
		</g>
		<path id="path8626" sodipodi:nodetypes="cccccccc" inkscape:connector-curvature="0" fill="#D40000" d="M1384.6-4.2
			c-1.2-2.6-1.4-7.1,2.3-7.7c2.7-0.4,3.8,0.9,4,2.8c0.1,0.5,0.5,0.6,0.5-0.1c0.2-2,2.1-3.1,3.6-2.8c4.1,0.7,3.9,5.3,2.6,8.4
			c-2,4.1-4.2,6.7-6.2,10.9C1389.1,3.1,1386.4-0.5,1384.6-4.2L1384.6-4.2z"/>
		<path id="path8512" sodipodi:nodetypes="ccccsccssc" inkscape:connector-curvature="0" fill="#D40000" d="M1453.3,45.8
			c5.3-0.4,8.2,4.2,8.7,7.8c0.3,0.6,0.5,0.4,0.6,0c0.2-4.7,4.4-8.4,8.3-7.9c6.2,0.1,10.1,7.1,9,12.9c-1.3,7.2-5.2,11.6-8.1,16
			c-3.3,4.7-7.8,11.3-9.3,14.5c0,0-4.5-6.9-10.5-15.1c-4-5.4-7.1-11.4-7.5-16.4C1444.4,51.9,1446.7,46.7,1453.3,45.8L1453.3,45.8z"
			/>
		<path id="path8648" sodipodi:nodetypes="cccccccc" inkscape:connector-curvature="0" fill="#D40000" d="M1526.4,139.4
			c-1.2,2.6-1.4,7.1,2.3,7.7c2.7,0.4,3.8-0.9,4-2.8c0.1-0.5,0.5-0.6,0.5,0.1c0.2,2,2.1,3.1,3.6,2.8c4.1-0.7,3.9-5.3,2.6-8.4
			c-2-4.1-4.2-6.7-6.2-10.9C1530.8,132.1,1528.2,135.7,1526.4,139.4L1526.4,139.4z"/>
	</g>
</g>
</svg>
